<svg width="1303" height="514" viewBox="0 0 1303 514" fill="none" xmlns="http://www.w3.org/2000/svg">
<path d="M193.322 180.707C193.322 185.915 192.346 189.984 190.393 192.914C188.602 195.681 186.161 197.797 183.068 199.262C179.976 200.727 176.477 201.622 172.57 201.947C168.827 202.273 165.002 202.517 161.096 202.68C169.885 211.794 176.883 222.292 182.092 234.174C187.3 246.055 189.904 258.344 189.904 271.039C189.904 283.572 187.788 295.86 183.557 307.904C179.325 319.786 173.303 330.365 165.49 339.643C157.678 348.92 148.319 356.407 137.414 362.104C126.509 367.8 114.383 370.648 101.037 370.648C90.4577 370.648 80.9362 368.614 72.4727 364.545C64.0091 360.476 56.4408 354.942 49.7676 347.943C43.0944 340.782 37.235 332.562 32.1895 323.285C27.1439 313.845 22.8307 303.835 19.25 293.256C15.6693 282.514 12.6582 271.446 10.2168 260.053C7.93815 248.66 6.06641 237.51 4.60156 226.605C3.29948 215.701 2.32292 205.365 1.67188 195.6C1.18359 185.671 0.939453 176.801 0.939453 168.988C0.939453 159.874 1.34635 150.108 2.16016 139.691C3.13672 129.275 4.68294 118.777 6.79883 108.197C8.91471 97.6178 11.763 87.2826 15.3438 77.1914C18.9245 67.1003 23.4818 57.8229 29.0156 49.3594C34.5495 40.7331 41.0599 33.2461 48.5469 26.8984C56.1966 20.388 65.0671 15.5052 75.1582 12.25C78.9017 10.9479 82.6452 9.97135 86.3887 9.32031C90.1322 8.66927 93.8757 8.34375 97.6191 8.34375C113.895 8.34375 127.404 12.7383 138.146 21.5273C149.051 30.3164 157.189 42.1979 162.561 57.1719C163.537 59.4505 164.351 61.8105 165.002 64.252C165.653 66.5306 165.979 68.8906 165.979 71.332C165.979 74.2617 164.921 76.1335 162.805 76.9473C160.689 77.7611 158.492 78.168 156.213 78.168C150.354 78.168 145.633 77.11 142.053 74.9941C138.472 72.8783 135.461 70.2741 133.02 67.1816C130.578 64.0892 128.381 60.6712 126.428 56.9277C124.637 53.1842 122.603 49.7663 120.324 46.6738C118.046 43.5814 115.197 40.9772 111.779 38.8613C108.361 36.7454 103.804 35.6875 98.1074 35.6875C89.9694 35.6875 82.8079 37.9661 76.623 42.5234C70.4382 47.0807 65.0671 53.1029 60.5098 60.5898C55.9525 67.9141 52.1276 76.2962 49.0352 85.7363C45.9427 95.0137 43.5013 104.372 41.7109 113.812C39.9206 123.09 38.6185 132.042 37.8047 140.668C36.9909 149.294 36.584 156.618 36.584 162.641C36.584 168.988 36.9909 177.777 37.8047 189.008C38.6185 200.238 39.9206 212.445 41.7109 225.629C43.6641 238.812 46.1868 252.24 49.2793 265.912C52.5345 279.421 56.5221 291.71 61.2422 302.777C66.125 313.845 71.8216 322.878 78.332 329.877C85.0052 336.876 92.7363 340.375 101.525 340.375C109.175 340.375 116.092 338.178 122.277 333.783C128.462 329.226 133.671 323.611 137.902 316.938C142.297 310.102 145.633 302.859 147.912 295.209C150.191 287.396 151.33 280.154 151.33 273.48C151.33 267.133 150.435 260.867 148.645 254.682C146.854 248.334 144.331 242.393 141.076 236.859C137.821 231.163 133.915 225.954 129.357 221.234C124.8 216.352 119.755 212.283 114.221 209.027C112.268 207.725 110.07 206.586 107.629 205.609C105.35 204.47 102.99 203.493 100.549 202.68C99.2467 202.517 96.724 202.354 92.9805 202.191C89.237 201.866 85.4121 201.459 81.5059 200.971C77.5996 200.482 74.1003 199.75 71.0078 198.773C67.9154 197.634 66.3691 196.007 66.3691 193.891C66.3691 190.961 66.8574 187.95 67.834 184.857C68.8105 181.765 70.194 178.998 71.9844 176.557C73.9375 174.115 76.1348 172.081 78.5762 170.453C81.1803 168.826 84.11 168.012 87.3652 168.012C92.0853 168.012 97.1309 168.744 102.502 170.209C108.036 171.511 112.919 173.057 117.15 174.848C125.288 174.359 133.345 173.871 141.32 173.383C149.296 172.732 157.189 171.918 165.002 170.941C167.769 170.616 170.454 170.209 173.059 169.721C175.826 169.232 178.674 168.988 181.604 168.988C185.51 168.988 188.439 169.883 190.393 171.674C192.346 173.464 193.322 176.475 193.322 180.707Z" fill="black"/>
<path d="M315.637 352.826C315.637 356.081 314.823 358.279 313.195 359.418C311.568 360.72 309.289 361.371 306.359 361.371C298.71 361.371 293.176 359.337 289.758 355.268C286.503 351.199 284.061 345.827 282.434 339.154C281.945 336.876 281.457 334.597 280.969 332.318C280.48 329.877 280.074 327.517 279.748 325.238C279.423 323.122 279.097 321.658 278.771 320.844C278.446 320.03 278.12 318.484 277.795 316.205C275.842 320.925 273.4 325.889 270.471 331.098C267.704 336.143 264.449 340.863 260.705 345.258C256.962 349.49 252.73 352.989 248.01 355.756C243.452 358.523 238.407 359.906 232.873 359.906C227.014 359.906 222.131 358.523 218.225 355.756C214.318 352.826 211.226 349.245 208.947 345.014C206.831 340.619 205.285 335.818 204.309 330.609C203.495 325.401 203.088 320.437 203.088 315.717C203.088 304.649 204.146 292.686 206.262 279.828C208.54 266.807 211.633 253.868 215.539 241.01C219.445 227.989 224.003 215.538 229.211 203.656C234.419 191.612 240.116 181.114 246.301 172.162V172.406L247.766 170.209C249.556 167.768 251.59 165.163 253.869 162.396C256.311 159.467 259.159 158.002 262.414 158.002C265.507 158.002 268.192 159.385 270.471 162.152C272.749 164.757 274.377 167.523 275.354 170.453C279.585 171.267 283.003 172.325 285.607 173.627C288.212 174.766 290.246 176.231 291.711 178.021C293.176 179.812 294.152 181.928 294.641 184.369C295.129 186.648 295.373 189.171 295.373 191.938C295.373 193.077 295.373 194.298 295.373 195.6C295.373 196.902 295.292 198.204 295.129 199.506C294.966 200.808 294.885 202.354 294.885 204.145C294.885 205.935 294.885 207.562 294.885 209.027C294.885 210.655 295.129 212.771 295.617 215.375C296.268 217.979 296.919 220.665 297.57 223.432L299.279 232.465C300.093 237.185 300.744 242.556 301.232 248.578C301.883 254.6 302.616 260.622 303.43 266.645C304.081 272.829 304.732 278.852 305.383 284.711C306.034 290.408 306.685 295.697 307.336 300.58L313.195 336.713L313.928 340.863C314.253 342.979 314.579 344.932 314.904 346.723C315.393 348.513 315.637 350.548 315.637 352.826ZM259.729 212.445C259.729 212.12 259.647 211.632 259.484 210.98C259.322 210.167 259.159 209.353 258.996 208.539C255.253 216.514 251.916 225.222 248.986 234.662C246.219 243.939 243.859 253.461 241.906 263.227C240.116 272.829 238.732 282.514 237.756 292.279C236.942 301.882 236.535 310.997 236.535 319.623C236.535 320.437 236.535 321.169 236.535 321.82C236.535 322.471 236.617 323.122 236.779 323.773V324.018C240.686 317.995 244.022 310.102 246.789 300.336C249.719 290.408 252.16 280.072 254.113 269.33C256.066 258.425 257.45 247.927 258.264 237.836C259.24 227.582 259.729 219.118 259.729 212.445Z" fill="black"/>
<path d="M371.789 354.779C371.789 358.523 370.65 360.964 368.371 362.104C366.255 363.243 363.651 363.812 360.559 363.812C357.792 363.812 355.025 363.568 352.258 363.08C349.654 362.755 347.131 362.022 344.689 360.883C342.411 359.743 340.376 358.197 338.586 356.244C336.958 354.291 335.819 351.768 335.168 348.676C332.889 338.91 331.587 329.389 331.262 320.111C330.936 310.671 330.773 300.987 330.773 291.059V261.029C330.773 247.357 331.343 233.197 332.482 218.549C333.622 203.738 334.842 189.496 336.145 175.824C336.145 175.336 336.226 174.766 336.389 174.115C336.551 173.464 336.633 172.976 336.633 172.65C336.796 170.86 337.04 168.907 337.365 166.791C337.691 164.675 338.179 162.803 338.83 161.176C339.644 159.385 340.702 157.921 342.004 156.781C343.469 155.642 345.34 155.072 347.619 155.072C350.223 155.072 352.665 155.642 354.943 156.781C357.385 157.758 359.501 159.141 361.291 160.932C363.081 162.559 364.465 164.594 365.441 167.035C366.581 169.477 367.15 171.999 367.15 174.604C367.15 177.859 366.988 181.277 366.662 184.857C366.499 188.275 366.255 191.612 365.93 194.867C365.604 197.146 365.36 198.855 365.197 199.994C365.197 201.133 365.116 203.005 364.953 205.609C366.906 202.191 369.104 198.773 371.545 195.355C374.149 191.775 376.997 188.682 380.09 186.078C383.182 183.311 386.519 181.114 390.1 179.486C393.843 177.696 397.831 176.801 402.062 176.801C406.294 176.801 409.794 177.533 412.561 178.998C415.327 180.3 417.525 182.172 419.152 184.613C420.78 186.892 421.919 189.659 422.57 192.914C423.221 196.169 423.547 199.587 423.547 203.168C423.547 205.447 423.465 207.644 423.303 209.76C423.303 211.876 423.221 213.992 423.059 216.107C422.896 218.223 422.733 220.339 422.57 222.455C422.57 224.408 422.57 226.524 422.57 228.803C422.57 233.035 422.652 237.104 422.814 241.01C423.14 244.753 423.465 248.741 423.791 252.973C425.419 247.602 427.372 241.498 429.65 234.662C432.092 227.826 434.859 220.827 437.951 213.666C441.206 206.505 444.706 199.506 448.449 192.67C452.355 185.671 456.506 179.486 460.9 174.115C465.458 168.744 470.34 164.431 475.549 161.176C480.757 157.758 486.21 156.049 491.906 156.049C500.858 156.049 507.124 158.653 510.705 163.861C514.449 169.07 516.32 175.743 516.32 183.881C516.32 186.16 516.239 188.601 516.076 191.205C515.913 193.646 515.669 196.007 515.344 198.285C514.53 207.074 513.879 216.107 513.391 225.385C513.065 234.662 512.902 243.695 512.902 252.484V257.123C512.902 268.516 513.391 279.258 514.367 289.35C515.344 299.441 517.297 310.102 520.227 321.332L522.18 327.924C522.831 330.202 523.563 332.725 524.377 335.492C525.354 338.259 526.167 340.945 526.818 343.549C527.469 346.153 528.039 348.594 528.527 350.873C529.016 353.152 529.26 354.942 529.26 356.244C529.26 359.662 528.039 361.941 525.598 363.08C523.156 364.219 520.633 364.789 518.029 364.789C516.402 364.789 514.53 364.708 512.414 364.545C510.298 364.545 508.182 364.301 506.066 363.812C504.113 363.487 502.16 362.917 500.207 362.104C498.417 361.29 496.952 360.232 495.812 358.93V359.174C494.348 357.709 493.29 355.919 492.639 353.803C491.988 351.687 491.499 349.571 491.174 347.455L490.686 345.258C488.407 336.469 486.454 328.575 484.826 321.576C483.361 314.577 482.141 307.579 481.164 300.58C480.188 293.581 479.455 286.339 478.967 278.852C478.641 271.365 478.479 262.738 478.479 252.973C478.479 244.672 478.804 236.208 479.455 227.582C480.269 218.956 481.083 210.492 481.896 202.191C481.896 201.378 481.896 200.482 481.896 199.506C482.059 198.367 482.222 197.39 482.385 196.576C476.2 206.179 470.747 216.758 466.027 228.314C461.47 239.708 457.32 251.426 453.576 263.471C449.995 275.515 446.822 287.641 444.055 299.848C441.451 311.892 439.09 323.367 436.975 334.271C436.975 334.434 437.3 335.411 437.951 337.201C438.765 338.829 439.497 340.782 440.148 343.061C440.962 345.176 441.695 347.292 442.346 349.408C442.997 351.361 443.322 352.663 443.322 353.314C443.322 357.058 442.102 359.337 439.66 360.15C437.219 360.964 434.696 361.371 432.092 361.371C430.139 361.371 428.023 361.29 425.744 361.127C423.465 360.964 421.187 360.557 418.908 359.906C416.792 359.255 414.758 358.36 412.805 357.221C411.014 356.244 409.549 354.779 408.41 352.826C407.434 351.199 406.294 347.374 404.992 341.352C403.69 335.167 402.307 328.005 400.842 319.867C399.377 311.566 397.993 302.696 396.691 293.256C395.389 283.816 394.169 274.864 393.029 266.4C391.89 257.937 390.995 250.531 390.344 244.184C389.693 237.836 389.367 233.523 389.367 231.244V227.582C384.159 238.812 379.846 250.857 376.428 263.715C373.01 276.573 370.406 289.187 368.615 301.557L367.639 305.951C367.313 307.253 367.069 308.555 366.906 309.857C366.743 310.997 366.662 312.136 366.662 313.275C366.662 315.066 366.825 317.263 367.15 319.867C367.639 322.471 368.208 325.32 368.859 328.412C369.673 332.644 370.324 337.038 370.812 341.596C371.464 345.99 371.789 350.385 371.789 354.779Z" fill="black"/>
<path d="M639.367 311.322C639.367 316.205 637.984 321.251 635.217 326.459C632.613 331.667 629.195 336.469 624.963 340.863C620.731 345.095 615.848 348.594 610.314 351.361C604.943 354.128 599.572 355.512 594.201 355.512C586.551 355.512 579.96 354.047 574.426 351.117C568.892 348.025 564.09 343.956 560.021 338.91C555.952 333.702 552.616 327.842 550.012 321.332C547.57 314.822 545.617 308.148 544.152 301.312C542.688 294.314 541.63 287.396 540.979 280.561C540.49 273.562 540.246 267.214 540.246 261.518C540.246 256.635 540.49 250.857 540.979 244.184C541.63 237.51 542.606 230.593 543.908 223.432C545.373 216.27 547.326 209.19 549.768 202.191C552.209 195.193 555.22 188.926 558.801 183.393C562.544 177.859 566.939 173.383 571.984 169.965C577.193 166.547 583.133 164.838 589.807 164.838C595.015 164.838 599.654 165.896 603.723 168.012C607.954 170.128 611.454 172.976 614.221 176.557C617.15 179.975 619.348 183.962 620.812 188.52C622.44 193.077 623.254 197.797 623.254 202.68C623.254 209.027 621.789 215.945 618.859 223.432C615.93 230.919 612.105 238.161 607.385 245.16C602.827 252.159 597.619 258.507 591.76 264.203C586.063 269.737 580.367 273.969 574.67 276.898C574.995 279.828 575.646 284.141 576.623 289.838C577.6 295.372 578.902 300.906 580.529 306.439C582.32 311.973 584.354 316.775 586.633 320.844C589.074 324.913 591.923 326.947 595.178 326.947C596.805 326.947 598.189 326.459 599.328 325.482C600.63 324.506 601.77 323.204 602.746 321.576C603.723 319.949 604.536 318.158 605.188 316.205C606.001 314.252 606.734 312.38 607.385 310.59L608.85 307.172C609.175 306.684 609.338 306.358 609.338 306.195C609.501 306.033 609.663 305.788 609.826 305.463C610.965 303.347 612.023 301.394 613 299.604C614.139 297.813 615.686 296.267 617.639 294.965H617.395C618.046 294.314 618.697 293.988 619.348 293.988C620.161 293.826 620.894 293.744 621.545 293.744C623.335 293.744 625.288 294.314 627.404 295.453C629.52 296.592 631.473 298.057 633.264 299.848C635.054 301.475 636.519 303.347 637.658 305.463C638.798 307.416 639.367 309.369 639.367 311.322ZM591.027 203.656C591.027 202.029 590.946 200.32 590.783 198.529C590.62 196.739 590.214 195.193 589.562 193.891C587.284 196.658 585.249 199.994 583.459 203.9C581.831 207.644 580.448 211.632 579.309 215.863C578.169 219.932 577.193 224.083 576.379 228.314C575.728 232.546 575.24 236.452 574.914 240.033C579.146 234.988 582.889 229.291 586.145 222.943C589.4 216.433 591.027 210.004 591.027 203.656Z" fill="black"/>
<path d="M883.752 93.3047C883.752 109.418 881.148 125.613 875.939 141.889C870.894 158.165 863.732 173.383 854.455 187.543C845.34 201.703 834.354 214.317 821.496 225.385C808.638 236.452 794.559 244.835 779.26 250.531C780.236 264.04 781.376 277.468 782.678 290.814C783.98 304.161 785.77 317.589 788.049 331.098C788.537 333.539 789.025 336.062 789.514 338.666C790.165 341.27 790.49 343.956 790.49 346.723C790.49 350.954 789.432 353.803 787.316 355.268C785.201 356.732 782.189 357.465 778.283 357.465C775.516 357.465 772.18 357.139 768.273 356.488C764.367 355.837 761.031 354.861 758.264 353.559C755.008 351.768 752.811 349.978 751.672 348.188C750.695 346.234 749.963 343.63 749.475 340.375C746.708 326.54 744.999 312.706 744.348 298.871C743.859 285.036 743.127 271.202 742.15 257.367C738.895 257.042 736.21 256.228 734.094 254.926C731.978 253.461 730.92 251.02 730.92 247.602C730.92 244.346 731.815 240.928 733.605 237.348C735.559 233.767 737.756 231 740.197 229.047C738.732 198.773 738.081 168.744 738.244 138.959C738.57 109.174 738.57 79.1445 738.244 48.8711C737.43 49.1966 736.698 49.4408 736.047 49.6035C735.396 49.7663 734.663 49.8477 733.85 49.8477C732.059 49.8477 730.594 49.4408 729.455 48.627C728.316 47.6504 727.339 46.5111 726.525 45.209C725.874 43.9069 725.386 42.5234 725.061 41.0586C724.735 39.431 724.572 37.9661 724.572 36.6641C724.572 31.7812 725.793 28.2819 728.234 26.166C730.676 23.8874 734.012 21.8529 738.244 20.0625C738.244 18.2721 738.244 16.2376 738.244 13.959C738.407 11.5176 738.732 9.32031 739.221 7.36719C739.872 5.2513 740.848 3.54232 742.15 2.24023C743.452 0.775391 745.406 0.0429688 748.01 0.0429688C752.242 0.0429688 756.311 0.856771 760.217 2.48438C764.123 4.11198 767.053 6.87891 769.006 10.7852C774.702 9.80859 780.236 8.91341 785.607 8.09961C790.979 7.28581 796.512 6.87891 802.209 6.87891C815.067 6.87891 826.542 9.07617 836.633 13.4707C846.724 17.7025 855.269 23.7246 862.268 31.5371C869.266 39.1868 874.556 48.3014 878.137 58.8809C881.88 69.4603 883.752 80.9349 883.752 93.3047ZM847.131 88.9102C847.131 81.4232 846.154 74.4245 844.201 67.9141C842.248 61.2409 839.318 55.5443 835.412 50.8242C831.506 45.9414 826.542 42.1165 820.52 39.3496C814.497 36.5827 807.417 35.1992 799.279 35.1992C794.885 35.1992 790.409 35.5247 785.852 36.1758C781.457 36.8268 777.144 37.8034 772.912 39.1055C772.912 68.8906 773.075 98.4316 773.4 127.729C773.889 157.025 775.028 186.404 776.818 215.863C787.235 210.492 796.757 203.005 805.383 193.402C814.009 183.799 821.415 173.22 827.6 161.664C833.785 149.945 838.586 137.82 842.004 125.287C845.422 112.592 847.131 100.466 847.131 88.9102Z" fill="black"/>
<path d="M970.91 352.826C970.91 356.081 970.096 358.279 968.469 359.418C966.841 360.72 964.562 361.371 961.633 361.371C953.983 361.371 948.449 359.337 945.031 355.268C941.776 351.199 939.335 345.827 937.707 339.154C937.219 336.876 936.73 334.597 936.242 332.318C935.754 329.877 935.347 327.517 935.021 325.238C934.696 323.122 934.37 321.658 934.045 320.844C933.719 320.03 933.394 318.484 933.068 316.205C931.115 320.925 928.674 325.889 925.744 331.098C922.977 336.143 919.722 340.863 915.979 345.258C912.235 349.49 908.003 352.989 903.283 355.756C898.726 358.523 893.68 359.906 888.146 359.906C882.287 359.906 877.404 358.523 873.498 355.756C869.592 352.826 866.499 349.245 864.221 345.014C862.105 340.619 860.559 335.818 859.582 330.609C858.768 325.401 858.361 320.437 858.361 315.717C858.361 304.649 859.419 292.686 861.535 279.828C863.814 266.807 866.906 253.868 870.812 241.01C874.719 227.989 879.276 215.538 884.484 203.656C889.693 191.612 895.389 181.114 901.574 172.162V172.406L903.039 170.209C904.829 167.768 906.864 165.163 909.143 162.396C911.584 159.467 914.432 158.002 917.688 158.002C920.78 158.002 923.465 159.385 925.744 162.152C928.023 164.757 929.65 167.523 930.627 170.453C934.859 171.267 938.277 172.325 940.881 173.627C943.485 174.766 945.52 176.231 946.984 178.021C948.449 179.812 949.426 181.928 949.914 184.369C950.402 186.648 950.646 189.171 950.646 191.938C950.646 193.077 950.646 194.298 950.646 195.6C950.646 196.902 950.565 198.204 950.402 199.506C950.24 200.808 950.158 202.354 950.158 204.145C950.158 205.935 950.158 207.562 950.158 209.027C950.158 210.655 950.402 212.771 950.891 215.375C951.542 217.979 952.193 220.665 952.844 223.432L954.553 232.465C955.367 237.185 956.018 242.556 956.506 248.578C957.157 254.6 957.889 260.622 958.703 266.645C959.354 272.829 960.005 278.852 960.656 284.711C961.307 290.408 961.958 295.697 962.609 300.58L968.469 336.713L969.201 340.863C969.527 342.979 969.852 344.932 970.178 346.723C970.666 348.513 970.91 350.548 970.91 352.826ZM915.002 212.445C915.002 212.12 914.921 211.632 914.758 210.98C914.595 210.167 914.432 209.353 914.27 208.539C910.526 216.514 907.189 225.222 904.26 234.662C901.493 243.939 899.133 253.461 897.18 263.227C895.389 272.829 894.006 282.514 893.029 292.279C892.215 301.882 891.809 310.997 891.809 319.623C891.809 320.437 891.809 321.169 891.809 321.82C891.809 322.471 891.89 323.122 892.053 323.773V324.018C895.959 317.995 899.296 310.102 902.062 300.336C904.992 290.408 907.434 280.072 909.387 269.33C911.34 258.425 912.723 247.927 913.537 237.836C914.514 227.582 915.002 219.118 915.002 212.445Z" fill="black"/>
<path d="M1009.48 359.906C1007.04 359.906 1004.36 359.581 1001.43 358.93C998.661 358.279 995.975 357.221 993.371 355.756C990.93 354.291 988.814 352.501 987.023 350.385C985.396 348.106 984.582 345.421 984.582 342.328C984.582 337.771 984.745 333.295 985.07 328.9C985.559 324.343 986.047 319.867 986.535 315.473V315.717L988 299.359C988.488 293.5 988.895 287.071 989.221 280.072C989.546 273.074 989.79 265.993 989.953 258.832C990.279 251.508 990.523 244.346 990.686 237.348C990.848 230.349 990.93 223.92 990.93 218.061C990.93 214.643 990.848 211.225 990.686 207.807C990.686 204.226 990.686 200.645 990.686 197.064C990.523 193.972 990.441 190.554 990.441 186.811C990.441 182.904 990.441 179.324 990.441 176.068C990.441 172.65 990.848 169.883 991.662 167.768C992.639 165.489 995.243 164.35 999.475 164.35C1003.22 164.35 1007.12 165.326 1011.19 167.279C1015.43 169.232 1018.35 171.999 1019.98 175.58H1019.74C1020.55 177.37 1021.12 180.3 1021.45 184.369C1021.94 188.275 1022.26 191.775 1022.42 194.867C1025.19 190.635 1028.28 186.16 1031.7 181.439C1035.28 176.719 1039.11 172.406 1043.18 168.5C1047.24 164.431 1051.56 161.094 1056.12 158.49C1060.67 155.886 1065.56 154.584 1070.76 154.584C1077.6 154.584 1082.81 156.293 1086.39 159.711C1089.97 163.129 1092.57 167.442 1094.2 172.65C1095.83 177.696 1096.72 183.148 1096.89 189.008C1097.05 194.704 1097.13 199.913 1097.13 204.633V206.586C1097.13 208.539 1097.05 210.492 1096.89 212.445C1096.89 214.236 1096.56 215.945 1095.91 217.572C1095.42 219.037 1094.45 220.258 1092.98 221.234C1091.68 222.211 1089.81 222.699 1087.37 222.699C1084.76 222.699 1081.99 222.374 1079.06 221.723C1076.13 220.909 1073.37 219.77 1070.76 218.305C1068.32 216.84 1066.21 215.049 1064.42 212.934C1062.63 210.655 1061.65 208.051 1061.49 205.121C1061.49 203.819 1061.49 202.517 1061.49 201.215C1061.49 199.913 1061.57 198.611 1061.73 197.309C1061.73 196.495 1061.73 195.518 1061.73 194.379C1061.89 193.077 1061.97 191.856 1061.97 190.717C1056.77 195.925 1052.13 202.354 1048.06 210.004C1044.15 217.654 1040.57 225.792 1037.32 234.418C1034.22 243.044 1031.54 251.752 1029.26 260.541C1026.98 269.167 1025.03 276.98 1023.4 283.979V284.711C1022.91 289.757 1022.59 294.721 1022.42 299.604C1022.26 304.486 1022.1 309.532 1021.94 314.74C1021.77 320.6 1021.53 326.54 1021.2 332.562C1021.04 338.585 1020.63 344.444 1019.98 350.141C1019.66 353.233 1018.68 355.593 1017.05 357.221C1015.59 359.011 1013.07 359.906 1009.48 359.906Z" fill="black"/>
<path d="M1161.34 349.896C1161.34 351.687 1160.93 353.233 1160.12 354.535C1159.31 355.674 1158.25 356.57 1156.95 357.221C1155.81 357.872 1154.5 358.279 1153.04 358.441C1151.74 358.767 1150.43 358.93 1149.13 358.93C1147.34 358.93 1145.23 358.686 1142.79 358.197C1140.51 357.872 1138.23 357.302 1135.95 356.488C1133.67 355.674 1131.55 354.698 1129.6 353.559C1127.81 352.257 1126.43 350.71 1125.45 348.92C1124.47 347.292 1123.58 344.281 1122.77 339.887C1122.11 335.329 1121.54 330.121 1121.06 324.262C1120.57 318.24 1120.16 311.892 1119.84 305.219C1119.51 298.383 1119.18 291.872 1118.86 285.688C1118.7 279.503 1118.53 273.969 1118.37 269.086C1118.37 264.04 1118.37 260.297 1118.37 257.855C1118.37 246.462 1118.53 235.476 1118.86 224.896C1119.35 214.154 1119.84 203.168 1120.32 191.938C1119.51 191.938 1118.7 192.019 1117.88 192.182C1117.07 192.344 1116.26 192.426 1115.44 192.426C1113.33 192.751 1111.13 192.995 1108.85 193.158C1106.73 193.321 1104.54 193.402 1102.26 193.402C1099.49 193.402 1097.05 192.914 1094.93 191.938C1092.82 190.961 1091.76 188.764 1091.76 185.346C1091.76 181.277 1092.65 178.021 1094.45 175.58C1096.24 173.139 1098.51 171.267 1101.28 169.965C1104.05 168.5 1107.06 167.523 1110.31 167.035C1113.57 166.384 1116.74 165.896 1119.84 165.57C1120.32 165.57 1120.65 165.57 1120.81 165.57C1120.98 165.408 1121.3 165.326 1121.79 165.326C1121.95 163.373 1122.11 161.013 1122.28 158.246C1122.44 155.316 1122.6 152.143 1122.77 148.725C1122.93 143.354 1123.17 137.657 1123.5 131.635C1123.82 125.45 1124.15 119.59 1124.47 114.057C1124.8 108.36 1125.21 103.396 1125.7 99.1641C1126.18 94.7695 1126.67 91.6771 1127.16 89.8867C1127.97 87.7708 1128.87 86.0618 1129.85 84.7598C1130.99 83.4577 1133.02 82.8066 1135.95 82.8066C1142.46 82.8066 1147.51 84.9225 1151.09 89.1543C1154.67 93.3861 1156.46 98.5944 1156.46 104.779C1156.46 111.941 1156.21 119.102 1155.72 126.264C1155.4 133.425 1155.07 140.668 1154.75 147.992L1154.02 160.443C1158.08 159.955 1162.15 159.223 1166.22 158.246C1170.13 157.432 1174.04 156.7 1177.94 156.049C1182.01 155.398 1185.92 155.072 1189.66 155.072C1192.92 155.072 1195.44 155.967 1197.23 157.758C1199.02 159.385 1199.91 161.827 1199.91 165.082C1199.91 168.663 1199.26 172.162 1197.96 175.58C1196.66 178.998 1194.38 181.602 1191.12 183.393H1191.37C1190.72 183.718 1188.76 184.206 1185.51 184.857C1182.25 185.346 1178.51 185.834 1174.28 186.322C1170.21 186.811 1166.14 187.299 1162.07 187.787C1158.17 188.275 1155.24 188.601 1153.28 188.764H1153.04C1152.71 197.878 1152.47 206.911 1152.31 215.863C1152.14 224.652 1152.06 233.604 1152.06 242.719C1152.06 255.251 1152.39 268.598 1153.04 282.758C1153.85 296.755 1155.15 310.102 1156.95 322.797L1158.9 333.783C1159.55 336.55 1160.12 339.317 1160.61 342.084C1161.1 344.688 1161.34 347.292 1161.34 349.896Z" fill="black"/>
<path d="M1300.01 372.602C1300.01 379.275 1299.77 386.273 1299.28 393.598C1298.79 400.922 1297.98 408.246 1296.84 415.57C1295.7 423.057 1294.15 430.382 1292.2 437.543C1290.25 444.704 1287.8 451.378 1284.88 457.562C1279.99 466.677 1273.81 474.652 1266.32 481.488C1259 488.487 1250.94 494.346 1242.15 499.066C1233.36 503.786 1224 507.367 1214.07 509.809C1204.15 512.25 1194.14 513.471 1184.04 513.471C1182.58 513.471 1180.87 513.389 1178.92 513.227C1176.8 513.064 1174.77 512.657 1172.81 512.006C1170.86 511.518 1169.23 510.622 1167.93 509.32C1166.63 508.018 1165.98 506.228 1165.98 503.949C1165.98 502.973 1166.22 501.996 1166.71 501.02C1166.71 500.694 1166.79 500.368 1166.96 500.043C1166.96 499.88 1166.96 499.717 1166.96 499.555C1168.09 496.299 1169.4 493.695 1170.86 491.742C1172.33 489.789 1174.04 488.243 1175.99 487.104C1177.78 486.127 1179.98 485.395 1182.58 484.906C1185.02 484.581 1187.87 484.255 1191.12 483.93C1201.54 483.441 1211.39 481 1220.67 476.605V476.85C1231.25 471.641 1239.55 465.131 1245.57 457.318C1251.75 449.669 1256.39 441.124 1259.48 431.684C1262.74 422.406 1264.77 412.559 1265.59 402.143C1266.4 391.726 1266.81 381.228 1266.81 370.648C1266.81 368.207 1266.81 366.417 1266.81 365.277C1266.81 364.138 1266.81 363.08 1266.81 362.104C1266.81 361.29 1266.81 360.313 1266.81 359.174C1266.81 358.035 1266.73 356.244 1266.56 353.803C1260.87 358.197 1254.93 360.395 1248.74 360.395C1241.58 360.395 1235.48 358.441 1230.43 354.535C1225.55 350.466 1221.4 345.258 1217.98 338.91C1214.73 332.4 1212.12 325.076 1210.17 316.938C1208.38 308.637 1206.99 300.255 1206.02 291.791C1205.2 283.165 1204.63 274.783 1204.31 266.645C1204.15 258.507 1204.06 251.264 1204.06 244.916V234.662C1204.06 226.036 1204.06 217.572 1204.06 209.271C1204.23 200.971 1204.55 192.67 1205.04 184.369V180.707C1205.04 178.754 1205.04 176.801 1205.04 174.848C1205.04 172.895 1205.2 171.023 1205.53 169.232C1206.18 166.628 1207.08 164.757 1208.21 163.617C1209.52 162.478 1211.55 161.908 1214.32 161.908C1215.62 161.908 1216.84 161.99 1217.98 162.152C1219.28 162.315 1220.58 162.559 1221.89 162.885C1224.98 164.187 1227.42 165.57 1229.21 167.035C1231 168.337 1232.3 169.965 1233.12 171.918C1234.09 173.708 1234.66 175.824 1234.83 178.266C1235.15 180.707 1235.31 183.555 1235.31 186.811V219.525C1235.31 223.432 1235.31 228.314 1235.31 234.174C1235.48 239.87 1235.72 246.137 1236.05 252.973C1236.37 259.809 1236.78 266.889 1237.27 274.213C1237.76 281.537 1238.49 288.617 1239.46 295.453C1240.44 302.289 1241.58 308.555 1242.88 314.252C1244.18 319.949 1245.81 324.669 1247.77 328.412C1250.7 322.064 1253.22 314.659 1255.33 306.195C1257.45 297.569 1259.16 288.373 1260.46 278.607C1261.93 268.679 1262.98 258.507 1263.63 248.09C1264.45 237.673 1265.02 227.501 1265.34 217.572C1265.83 207.644 1266.08 198.285 1266.08 189.496C1266.24 180.544 1266.32 172.732 1266.32 166.059C1266.32 164.431 1266.32 162.722 1266.32 160.932C1266.48 158.979 1266.89 157.27 1267.54 155.805C1268.19 154.177 1269.09 152.875 1270.23 151.898C1271.53 150.922 1273.4 150.434 1275.84 150.434C1276.98 150.434 1278.2 150.596 1279.5 150.922C1280.97 151.247 1282.19 151.573 1283.17 151.898C1283.49 151.898 1283.82 151.98 1284.14 152.143C1284.63 152.143 1285.04 152.143 1285.36 152.143C1287.64 152.956 1289.84 153.77 1291.96 154.584C1294.07 155.398 1295.86 156.456 1297.33 157.758C1298.95 158.897 1300.17 160.443 1300.99 162.396C1301.96 164.35 1302.45 166.872 1302.45 169.965C1302.45 173.708 1302.37 178.021 1302.21 182.904C1302.21 187.624 1302.05 192.589 1301.72 197.797C1301.56 203.005 1301.31 208.132 1300.99 213.178C1300.66 218.061 1300.34 222.455 1300.01 226.361L1299.04 234.906C1298.71 237.185 1298.47 239.464 1298.3 241.742C1298.14 244.021 1298.06 246.137 1298.06 248.09C1298.06 258.507 1298.14 268.923 1298.3 279.34C1298.47 289.594 1298.71 299.929 1299.04 310.346C1299.36 320.762 1299.6 331.179 1299.77 341.596C1299.93 351.85 1300.01 362.185 1300.01 372.602Z" fill="black"/>
</svg>
