<svg width="372" height="371" viewBox="0 0 372 371" fill="none" xmlns="http://www.w3.org/2000/svg">
<path d="M193.322 180.707C193.322 185.915 192.346 189.984 190.393 192.914C188.602 195.681 186.161 197.797 183.068 199.262C179.976 200.727 176.477 201.622 172.57 201.947C168.827 202.273 165.002 202.517 161.096 202.68C169.885 211.794 176.883 222.292 182.092 234.174C187.3 246.055 189.904 258.344 189.904 271.039C189.904 283.572 187.788 295.86 183.557 307.904C179.325 319.786 173.303 330.365 165.49 339.643C157.678 348.92 148.319 356.407 137.414 362.104C126.509 367.8 114.383 370.648 101.037 370.648C90.4577 370.648 80.9362 368.614 72.4727 364.545C64.0091 360.476 56.4408 354.942 49.7676 347.943C43.0944 340.782 37.235 332.562 32.1895 323.285C27.1439 313.845 22.8307 303.835 19.25 293.256C15.6693 282.514 12.6582 271.446 10.2168 260.053C7.93815 248.66 6.06641 237.51 4.60156 226.605C3.29948 215.701 2.32292 205.365 1.67188 195.6C1.18359 185.671 0.939453 176.801 0.939453 168.988C0.939453 159.874 1.34635 150.108 2.16016 139.691C3.13672 129.275 4.68294 118.777 6.79883 108.197C8.91471 97.6178 11.763 87.2826 15.3438 77.1914C18.9245 67.1003 23.4818 57.8229 29.0156 49.3594C34.5495 40.7331 41.0599 33.2461 48.5469 26.8984C56.1966 20.388 65.0671 15.5052 75.1582 12.25C78.9017 10.9479 82.6452 9.97135 86.3887 9.32031C90.1322 8.66927 93.8757 8.34375 97.6191 8.34375C113.895 8.34375 127.404 12.7383 138.146 21.5273C149.051 30.3164 157.189 42.1979 162.561 57.1719C163.537 59.4505 164.351 61.8105 165.002 64.252C165.653 66.5306 165.979 68.8906 165.979 71.332C165.979 74.2617 164.921 76.1335 162.805 76.9473C160.689 77.7611 158.492 78.168 156.213 78.168C150.354 78.168 145.633 77.11 142.053 74.9941C138.472 72.8783 135.461 70.2741 133.02 67.1816C130.578 64.0892 128.381 60.6712 126.428 56.9277C124.637 53.1842 122.603 49.7663 120.324 46.6738C118.046 43.5814 115.197 40.9772 111.779 38.8613C108.361 36.7454 103.804 35.6875 98.1074 35.6875C89.9694 35.6875 82.8079 37.9661 76.623 42.5234C70.4382 47.0807 65.0671 53.1029 60.5098 60.5898C55.9525 67.9141 52.1276 76.2962 49.0352 85.7363C45.9427 95.0137 43.5013 104.372 41.7109 113.812C39.9206 123.09 38.6185 132.042 37.8047 140.668C36.9909 149.294 36.584 156.618 36.584 162.641C36.584 168.988 36.9909 177.777 37.8047 189.008C38.6185 200.238 39.9206 212.445 41.7109 225.629C43.6641 238.812 46.1868 252.24 49.2793 265.912C52.5345 279.421 56.5221 291.71 61.2422 302.777C66.125 313.845 71.8216 322.878 78.332 329.877C85.0052 336.876 92.7363 340.375 101.525 340.375C109.175 340.375 116.092 338.178 122.277 333.783C128.462 329.226 133.671 323.611 137.902 316.938C142.297 310.102 145.633 302.859 147.912 295.209C150.191 287.396 151.33 280.154 151.33 273.48C151.33 267.133 150.435 260.867 148.645 254.682C146.854 248.334 144.331 242.393 141.076 236.859C137.821 231.163 133.915 225.954 129.357 221.234C124.8 216.352 119.755 212.283 114.221 209.027C112.268 207.725 110.07 206.586 107.629 205.609C105.35 204.47 102.99 203.493 100.549 202.68C99.2467 202.517 96.724 202.354 92.9805 202.191C89.237 201.866 85.4121 201.459 81.5059 200.971C77.5996 200.482 74.1003 199.75 71.0078 198.773C67.9154 197.634 66.3691 196.007 66.3691 193.891C66.3691 190.961 66.8574 187.95 67.834 184.857C68.8105 181.765 70.194 178.998 71.9844 176.557C73.9375 174.115 76.1348 172.081 78.5762 170.453C81.1803 168.826 84.11 168.012 87.3652 168.012C92.0853 168.012 97.1309 168.744 102.502 170.209C108.036 171.511 112.919 173.057 117.15 174.848C125.288 174.359 133.345 173.871 141.32 173.383C149.296 172.732 157.189 171.918 165.002 170.941C167.769 170.616 170.454 170.209 173.059 169.721C175.826 169.232 178.674 168.988 181.604 168.988C185.51 168.988 188.439 169.883 190.393 171.674C192.346 173.464 193.322 176.475 193.322 180.707Z" fill="white"/>
<path d="M371.545 93.3047C371.545 109.418 368.941 125.613 363.732 141.889C358.687 158.165 351.525 173.383 342.248 187.543C333.133 201.703 322.147 214.317 309.289 225.385C296.431 236.452 282.352 244.835 267.053 250.531C268.029 264.04 269.169 277.468 270.471 290.814C271.773 304.161 273.563 317.589 275.842 331.098C276.33 333.539 276.818 336.062 277.307 338.666C277.958 341.27 278.283 343.956 278.283 346.723C278.283 350.954 277.225 353.803 275.109 355.268C272.993 356.732 269.982 357.465 266.076 357.465C263.309 357.465 259.973 357.139 256.066 356.488C252.16 355.837 248.824 354.861 246.057 353.559C242.801 351.768 240.604 349.978 239.465 348.188C238.488 346.234 237.756 343.63 237.268 340.375C234.501 326.54 232.792 312.706 232.141 298.871C231.652 285.036 230.92 271.202 229.943 257.367C226.688 257.042 224.003 256.228 221.887 254.926C219.771 253.461 218.713 251.02 218.713 247.602C218.713 244.346 219.608 240.928 221.398 237.348C223.352 233.767 225.549 231 227.99 229.047C226.525 198.773 225.874 168.744 226.037 138.959C226.363 109.174 226.363 79.1445 226.037 48.8711C225.223 49.1966 224.491 49.4408 223.84 49.6035C223.189 49.7663 222.456 49.8477 221.643 49.8477C219.852 49.8477 218.387 49.4408 217.248 48.627C216.109 47.6504 215.132 46.5111 214.318 45.209C213.667 43.9069 213.179 42.5234 212.854 41.0586C212.528 39.431 212.365 37.9661 212.365 36.6641C212.365 31.7812 213.586 28.2819 216.027 26.166C218.469 23.8874 221.805 21.8529 226.037 20.0625C226.037 18.2721 226.037 16.2376 226.037 13.959C226.2 11.5176 226.525 9.32031 227.014 7.36719C227.665 5.2513 228.641 3.54232 229.943 2.24023C231.245 0.775391 233.199 0.0429688 235.803 0.0429688C240.035 0.0429688 244.104 0.856771 248.01 2.48438C251.916 4.11198 254.846 6.87891 256.799 10.7852C262.495 9.80859 268.029 8.91341 273.4 8.09961C278.771 7.28581 284.305 6.87891 290.002 6.87891C302.86 6.87891 314.335 9.07617 324.426 13.4707C334.517 17.7025 343.062 23.7246 350.061 31.5371C357.059 39.1868 362.349 48.3014 365.93 58.8809C369.673 69.4603 371.545 80.9349 371.545 93.3047ZM334.924 88.9102C334.924 81.4232 333.947 74.4245 331.994 67.9141C330.041 61.2409 327.111 55.5443 323.205 50.8242C319.299 45.9414 314.335 42.1165 308.312 39.3496C302.29 36.5827 295.21 35.1992 287.072 35.1992C282.678 35.1992 278.202 35.5247 273.645 36.1758C269.25 36.8268 264.937 37.8034 260.705 39.1055C260.705 68.8906 260.868 98.4316 261.193 127.729C261.682 157.025 262.821 186.404 264.611 215.863C275.028 210.492 284.549 203.005 293.176 193.402C301.802 183.799 309.208 173.22 315.393 161.664C321.577 149.945 326.379 137.82 329.797 125.287C333.215 112.592 334.924 100.466 334.924 88.9102Z" fill="white"/>
</svg>
